<svg xmlns="http://www.w3.org/2000/svg" width="137.134" height="137.869" viewBox="0 0 137.134 137.869">
  <g id="Group_13" data-name="Group 13" transform="translate(-425.824 -425.833)">
    <path id="Union_1" data-name="Union 1" d="M64.43,136.869c-.679,0-1.023-.474-1.228-1.214l-1.28-9.312a58.148,58.148,0,0,1-7.872-1.409L49.742,133.3a1.356,1.356,0,0,1-1.57.72l-6.93-2.522c-.637-.232-.8-.8-.739-1.562l2-9.253a58.366,58.366,0,0,1-6.876-4l-6.962,6.439a1.356,1.356,0,0,1-1.722.14l-5.649-4.74c-.519-.437-.479-1.021-.16-1.72L26.2,108.74a58.719,58.719,0,0,1-5.091-6.074l-8.778,3.683a1.356,1.356,0,0,1-1.666-.456L6.98,99.506c-.339-.588-.1-1.123.437-1.67l7.523-5.842a57.942,57.942,0,0,1-2.717-7.45L2.726,85c-.681-.055-1.291-.33-1.409-1L.036,76.741c-.117-.669.29-1.091.983-1.421l9.059-2.914q-.141-2.03-.141-4.095,0-1.936.125-3.844L1,61.657C.378,61.372-.1,60.9.017,60.236L1.3,52.974c.118-.669.645-.925,1.409-1l9.444.358a58,58,0,0,1,2.7-7.509L7.362,39.129a1.358,1.358,0,0,1-.437-1.671l3.687-6.386c.339-.588.922-.649,1.666-.457l8.689,3.541A58.69,58.69,0,0,1,26.1,27.99l-5.054-7.854a1.357,1.357,0,0,1,.161-1.72l5.649-4.74c.519-.436,1.088-.294,1.721.14L35.46,20.05a58.363,58.363,0,0,1,6.979-4.083l-2.039-9a1.357,1.357,0,0,1,.74-1.562l6.93-2.522c.637-.232,1.123.1,1.57.721l4.284,8.116a58.107,58.107,0,0,1,8.018-1.443l1.151-9.065C63.265.552,63.642,0,64.32,0h7.374c.68,0,1.024.474,1.229,1.213l1.239,9.01a58.173,58.173,0,0,1,8.082,1.383l4.138-8.04a1.356,1.356,0,0,1,1.57-.719l6.929,2.522c.639.232.8.8.741,1.561l-1.9,8.808a58.34,58.34,0,0,1,7.146,4.108l6.6-6.1a1.356,1.356,0,0,1,1.721-.14l5.648,4.739c.521.437.48,1.022.162,1.72l-4.78,7.6a58.693,58.693,0,0,1,5.322,6.32l8.255-3.464a1.356,1.356,0,0,1,1.665.457l3.686,6.386c.34.588.1,1.124-.436,1.671l-7.068,5.487a57.929,57.929,0,0,1,2.828,7.777l8.931-.432c.681.056,1.291.331,1.408,1l1.281,7.261c.118.67-.29,1.091-.982,1.422l-8.55,2.75q.135,1.988.136,4.013,0,2.137-.151,4.237l8.585,2.663c.622.285,1.1.752.982,1.42l-1.281,7.262c-.118.67-.644.926-1.409,1l-9.015-.342a57.948,57.948,0,0,1-2.838,7.718l7.2,5.47a1.358,1.358,0,0,1,.437,1.671l-3.687,6.386c-.339.589-.922.65-1.665.458l-8.439-3.439a58.713,58.713,0,0,1-5.277,6.23l4.948,7.688a1.356,1.356,0,0,1-.162,1.719l-5.648,4.74c-.52.437-1.089.3-1.722-.139l-6.822-6.18a58.255,58.255,0,0,1-7.04,4.03l2.039,9a1.356,1.356,0,0,1-.739,1.561l-6.929,2.522c-.639.232-1.125-.1-1.57-.719l-4.34-8.224a58.158,58.158,0,0,1-7.936,1.354l-1.176,9.26c-.173.661-.55,1.214-1.229,1.214Z" transform="translate(426.329 426.333)" fill="none" stroke="#b1790a" stroke-width="1"/>
    <g id="Ellipse_2" data-name="Ellipse 2" transform="translate(445.176 445.792)" fill="none" stroke="#b1790a" stroke-width="1">
      <ellipse cx="49.16" cy="49.16" rx="49.16" ry="49.16" stroke="none"/>
      <ellipse cx="49.16" cy="49.16" rx="48.66" ry="48.66" fill="none"/>
    </g>
  </g>
</svg>
