<svg xmlns="http://www.w3.org/2000/svg" width="92.182" height="92.3" viewBox="0 0 92.182 92.3">
  <g id="Group_14" data-name="Group 14" transform="translate(-515.952 -640.866)">
    <line id="Line_1" data-name="Line 1" x1="8" y2="14" transform="translate(595.855 641.831) rotate(45)" fill="none" stroke="#ffeb3b" stroke-linecap="round" stroke-width="1"/>
    <line id="Line_2" data-name="Line 2" x2="8" y2="14" transform="translate(601.512 647.488) rotate(45)" fill="none" stroke="#ffeb3b" stroke-linecap="round" stroke-width="1"/>
    <line id="Line_3" data-name="Line 3" y2="75" transform="translate(586.078 651.852) rotate(45)" fill="none" stroke="#ffeb3b" stroke-linecap="round" stroke-width="1"/>
    <line id="Line_4" data-name="Line 4" y2="75" transform="translate(597.148 662.922) rotate(45)" fill="none" stroke="#ffeb3b" stroke-linecap="round" stroke-width="1"/>
    <line id="Line_5" data-name="Line 5" x1="11.5" transform="translate(525.852 697.692) rotate(45)" fill="none" stroke="#ffeb3b" stroke-linecap="round" stroke-width="1"/>
    <line id="Line_6" data-name="Line 6" x1="6" transform="translate(547.065 718.906) rotate(45)" fill="none" stroke="#ffeb3b" stroke-linecap="round" stroke-width="1"/>
    <line id="Line_7" data-name="Line 7" y2="7" transform="translate(525.498 697.339) rotate(45)" fill="none" stroke="#ffeb3b" stroke-linecap="round" stroke-width="1"/>
    <line id="Line_8" data-name="Line 8" y2="7" transform="translate(551.661 723.502) rotate(45)" fill="none" stroke="#ffeb3b" stroke-linecap="round" stroke-width="1"/>
    <line id="Line_9" data-name="Line 9" x2="36" transform="translate(520.902 702.642) rotate(45)" fill="none" stroke="#ffeb3b" stroke-linecap="round" stroke-width="1"/>
    <line id="Line_10" data-name="Line 10" x2="25" transform="translate(529.387 701.228) rotate(45)" fill="none" stroke="#ffeb3b" stroke-width="1"/>
    <line id="Line_11" data-name="Line 11" y2="20" transform="translate(530.802 712.542) rotate(45)" fill="none" stroke="#ffeb3b" stroke-linecap="round" stroke-width="1"/>
    <line id="Line_12" data-name="Line 12" y2="20" transform="translate(536.577 718.317) rotate(45)" fill="none" stroke="#ffeb3b" stroke-linecap="round" stroke-width="1"/>
    <line id="Line_13" data-name="Line 13" x2="8" transform="translate(516.659 726.684) rotate(45)" fill="none" stroke="#ffeb3b" stroke-linecap="round" stroke-width="1"/>
    <line id="Line_14" data-name="Line 14" x2="8" y2="9" transform="translate(585.956 651.73) rotate(45)" fill="none" stroke="#ffeb3b" stroke-width="1"/>
    <line id="Line_15" data-name="Line 15" x1="8" y2="9" transform="translate(591.613 657.387) rotate(45)" fill="none" stroke="#ffeb3b" stroke-width="1"/>
    <line id="Line_16" data-name="Line 16" y2="67" transform="translate(585.956 663.044) rotate(45)" fill="none" stroke="#ffeb3b" stroke-width="1"/>
  </g>
</svg>
