<svg xmlns="http://www.w3.org/2000/svg" width="105.387" height="120.441" viewBox="0 0 105.387 120.441">
  <g id="Group_15" data-name="Group 15" transform="translate(-676.876 -529.894)">
    <path id="Path_4" data-name="Path 4" d="M694.134,535.307s-4.378,36.837,8.255,63.792,43.028,43.279,43.028,43.279,29.144-16.511,42.028-43.279,9.506-63.792,9.506-63.792" transform="translate(-16 7.386)" fill="none" stroke="#4dba87" stroke-linecap="round" stroke-width="1"/>
    <line id="Line_17" data-name="Line 17" x1="53.27" y2="12.683" transform="translate(677.653 530.5)" fill="none" stroke="#4dba87" stroke-linecap="round" stroke-width="1"/>
    <line id="Line_18" data-name="Line 18" x1="50.733" y1="12.683" transform="translate(730.923 530.5)" fill="none" stroke="#4dba87" stroke-linecap="round" stroke-width="1"/>
    <g id="Vue.js_Logo_2" transform="translate(621.982 883.848)">
      <g id="Group_10" data-name="Group 10" transform="translate(76.306 -313.339)">
        <path id="Path_5" data-name="Path 5" d="M-122.824,0l-7.181,12.438L-137.187,0H-161.1l31.1,53.86L-98.91,0Z" transform="translate(161.101)" fill="#41b883"/>
      </g>
      <g id="Group_11" data-name="Group 11" transform="translate(88.744 -313.339)">
        <path id="Path_6" data-name="Path 6" d="M-82.912,0l-7.181,12.438L-97.274,0h-11.476l18.657,32.315L-71.436,0Z" transform="translate(108.751)" fill="#34495e"/>
      </g>
    </g>
    <path id="Path_7" data-name="Path 7" d="M693.981,535.307s-3.464,29.143,6.531,50.468,34.042,34.239,34.042,34.239,23.057-13.062,33.25-34.239,7.521-50.468,7.521-50.468" transform="translate(-5.113 17.294)" fill="none" stroke="#4dba87" stroke-linecap="round" stroke-width="1"/>
    <line id="Line_19" data-name="Line 19" x1="42.144" y2="10.034" transform="translate(688.488 542.955)" fill="none" stroke="#4dba87" stroke-linecap="round" stroke-width="1"/>
    <line id="Line_20" data-name="Line 20" x1="40.137" y1="10.034" transform="translate(730.632 542.955)" fill="none" stroke="#4dba87" stroke-linecap="round" stroke-width="1"/>
    <text id="Vue" transform="translate(712 568)" fill="#4dba87" font-size="20" font-family="SegoeUI, Segoe UI"><tspan x="0" y="0">Vue</tspan></text>
  </g>
</svg>
